# xmcd CD database file
#
# Track frame offsets:
#	150
#	13935
#	25322
#	47740
#	61426
#	73020
#	87535
#	100678
#	113463
#	128265
#
# Disc length: 1969 seconds
#
# Revision: 0
# Processed by: cddbd v1.5.2PL0 Copyright (c) Steve Scherf et al.
# Submitted via: CDex 1.70beta3
#
DISCID=7c07af0a
DTITLE=The Three Sounds - Coldwater Flat
DYEAR=1968
DGENRE=Jazz
TTITLE0=Lonely Bottles
TTITLE1=The Lool Of Love
TTITLE2=Georgia
TTITLE3=Grass Is Greener
TTITLE4=Coldwater Flat
TTITLE5=Last Train To Clarksville
TTITLE6=My Romance
TTITLE7=I Remember Bird
TTITLE8=Do Do Do (What Now Is Next)
TTITLE9=Star Trek
EXTD=YEAR: 1968
EXTT0=
EXTT1=
EXTT2=
EXTT3=
EXTT4=
EXTT5=
EXTT6=
EXTT7=
EXTT8=
EXTT9=
PLAYORDER=
